<mxfile host="app.diagrams.net" modified="2020-11-23T15:22:48.087Z" agent="5.0 (X11; Linux x86_64) AppleWebKit/537.36 (KHTML, like Gecko) Chrome/85.0.4183.102 YaBrowser/20.9.3.189 (beta) Yowser/2.5 Safari/537.36" etag="_i3mnKYSSiEMhniGPYvj" version="13.9.1" type="github">
  <diagram id="C5RBs43oDa-KdzZeNtuy" name="Page-1">
    <mxGraphModel dx="1152" dy="600" grid="1" gridSize="10" guides="1" tooltips="1" connect="1" arrows="1" fold="1" page="1" pageScale="1" pageWidth="827" pageHeight="1169" math="0" shadow="0">
      <root>
        <mxCell id="WIyWlLk6GJQsqaUBKTNV-0" />
        <mxCell id="WIyWlLk6GJQsqaUBKTNV-1" parent="WIyWlLk6GJQsqaUBKTNV-0" />
        <mxCell id="7jW52vzTxKWrMM-vMJLI-19" value="в корзине есть товар&lt;br&gt;" style="edgeStyle=orthogonalEdgeStyle;rounded=0;orthogonalLoop=1;jettySize=auto;html=1;shadow=0;labelBackgroundColor=none;endArrow=block;endFill=0;endSize=8;strokeWidth=1;verticalAlign=bottom;" edge="1" parent="WIyWlLk6GJQsqaUBKTNV-1" source="7jW52vzTxKWrMM-vMJLI-0" target="7jW52vzTxKWrMM-vMJLI-18">
          <mxGeometry relative="1" as="geometry" />
        </mxCell>
        <mxCell id="7jW52vzTxKWrMM-vMJLI-21" value="&lt;meta charset=&quot;utf-8&quot;&gt;&lt;span style=&quot;color: rgb(0, 0, 0); font-family: helvetica; font-size: 12px; font-style: normal; font-weight: 400; letter-spacing: normal; text-align: center; text-indent: 0px; text-transform: none; word-spacing: 0px; background-color: rgb(248, 249, 250); display: inline; float: none;&quot;&gt;корзина пуста&lt;/span&gt;" style="edgeStyle=orthogonalEdgeStyle;rounded=0;orthogonalLoop=1;jettySize=auto;html=1;shadow=0;labelBackgroundColor=none;endArrow=block;endFill=0;endSize=8;strokeWidth=1;verticalAlign=bottom;" edge="1" parent="WIyWlLk6GJQsqaUBKTNV-1" source="7jW52vzTxKWrMM-vMJLI-0" target="7jW52vzTxKWrMM-vMJLI-20">
          <mxGeometry relative="1" as="geometry" />
        </mxCell>
        <mxCell id="7jW52vzTxKWrMM-vMJLI-0" value="&lt;span&gt;пользоветль&lt;br&gt;&amp;nbsp;кликает на &lt;br&gt;кнопу перейди&lt;br&gt;&amp;nbsp;к оформелнию&lt;/span&gt;" style="shape=rhombus;html=1;dashed=0;whitespace=wrap;perimeter=rhombusPerimeter;" vertex="1" parent="WIyWlLk6GJQsqaUBKTNV-1">
          <mxGeometry x="330" y="100" width="120" height="90" as="geometry" />
        </mxCell>
        <mxCell id="7jW52vzTxKWrMM-vMJLI-2" value="&lt;span&gt;пользовтель &lt;br&gt;находися в корзине&lt;/span&gt;" style="html=1;dashed=0;whitespace=wrap;" vertex="1" parent="WIyWlLk6GJQsqaUBKTNV-1">
          <mxGeometry x="340" y="30" width="100" height="30" as="geometry" />
        </mxCell>
        <mxCell id="7jW52vzTxKWrMM-vMJLI-3" value="" style="endArrow=classic;html=1;exitX=0.5;exitY=1;exitDx=0;exitDy=0;entryX=0.5;entryY=0;entryDx=0;entryDy=0;" edge="1" parent="WIyWlLk6GJQsqaUBKTNV-1" source="7jW52vzTxKWrMM-vMJLI-2" target="7jW52vzTxKWrMM-vMJLI-0">
          <mxGeometry width="50" height="50" relative="1" as="geometry">
            <mxPoint x="595" y="360" as="sourcePoint" />
            <mxPoint x="620" y="400" as="targetPoint" />
          </mxGeometry>
        </mxCell>
        <mxCell id="7jW52vzTxKWrMM-vMJLI-26" value="" style="edgeStyle=orthogonalEdgeStyle;rounded=0;orthogonalLoop=1;jettySize=auto;html=1;shadow=0;labelBackgroundColor=none;endArrow=block;endFill=0;endSize=8;strokeWidth=1;" edge="1" parent="WIyWlLk6GJQsqaUBKTNV-1" source="7jW52vzTxKWrMM-vMJLI-18" target="7jW52vzTxKWrMM-vMJLI-25">
          <mxGeometry relative="1" as="geometry" />
        </mxCell>
        <mxCell id="7jW52vzTxKWrMM-vMJLI-28" value="" style="edgeStyle=orthogonalEdgeStyle;rounded=0;orthogonalLoop=1;jettySize=auto;html=1;shadow=0;labelBackgroundColor=none;endArrow=block;endFill=0;endSize=8;strokeWidth=1;" edge="1" parent="WIyWlLk6GJQsqaUBKTNV-1" source="7jW52vzTxKWrMM-vMJLI-18" target="7jW52vzTxKWrMM-vMJLI-27">
          <mxGeometry relative="1" as="geometry" />
        </mxCell>
        <mxCell id="7jW52vzTxKWrMM-vMJLI-18" value="&lt;span style=&quot;color: rgb(0 , 0 , 0) ; font-family: &amp;#34;helvetica&amp;#34; ; font-size: 12px ; font-style: normal ; font-weight: 400 ; letter-spacing: normal ; text-align: center ; text-indent: 0px ; text-transform: none ; word-spacing: 0px ; background-color: rgb(248 , 249 , 250) ; display: inline ; float: none&quot;&gt;обновляе корзин&lt;br&gt;&lt;/span&gt;" style="whiteSpace=wrap;html=1;dashed=0;" vertex="1" parent="WIyWlLk6GJQsqaUBKTNV-1">
          <mxGeometry x="80" y="230" width="120" height="60" as="geometry" />
        </mxCell>
        <mxCell id="7jW52vzTxKWrMM-vMJLI-20" value="ответ ошибка&lt;br&gt;вы не можете создать&amp;nbsp;&lt;br&gt;заказ" style="whiteSpace=wrap;html=1;dashed=0;" vertex="1" parent="WIyWlLk6GJQsqaUBKTNV-1">
          <mxGeometry x="630" y="115" width="120" height="60" as="geometry" />
        </mxCell>
        <mxCell id="7jW52vzTxKWrMM-vMJLI-25" value="cartItem-&amp;gt;price = offer-&amp;gt;price&lt;br&gt;cartItem-&amp;gt;quantity = offer-&amp;gt;quantiy" style="shape=note;whiteSpace=wrap;html=1;backgroundOutline=1;darkOpacity=0.05;dashed=0;" vertex="1" parent="WIyWlLk6GJQsqaUBKTNV-1">
          <mxGeometry x="300" y="210" width="190" height="100" as="geometry" />
        </mxCell>
        <mxCell id="7jW52vzTxKWrMM-vMJLI-32" value="" style="edgeStyle=orthogonalEdgeStyle;rounded=0;orthogonalLoop=1;jettySize=auto;html=1;shadow=0;labelBackgroundColor=none;endArrow=block;endFill=0;endSize=8;strokeWidth=1;" edge="1" parent="WIyWlLk6GJQsqaUBKTNV-1" source="7jW52vzTxKWrMM-vMJLI-27" target="7jW52vzTxKWrMM-vMJLI-31">
          <mxGeometry relative="1" as="geometry" />
        </mxCell>
        <mxCell id="7jW52vzTxKWrMM-vMJLI-27" value="создаем закза" style="whiteSpace=wrap;html=1;dashed=0;" vertex="1" parent="WIyWlLk6GJQsqaUBKTNV-1">
          <mxGeometry x="80" y="370" width="120" height="60" as="geometry" />
        </mxCell>
        <mxCell id="7jW52vzTxKWrMM-vMJLI-31" value="отдаем в ответе id заказа" style="whiteSpace=wrap;html=1;dashed=0;" vertex="1" parent="WIyWlLk6GJQsqaUBKTNV-1">
          <mxGeometry x="80" y="510" width="120" height="60" as="geometry" />
        </mxCell>
      </root>
    </mxGraphModel>
  </diagram>
</mxfile>
